<svg width="26" height="26" viewBox="0 0 26 26" fill="none" xmlns="http://www.w3.org/2000/svg">
<g opacity="0.7" clip-path="url(#clip0_36_893)">
<path d="M21.3129 4.7968C19.7082 4.06051 17.9875 3.51805 16.1883 3.20736C16.1556 3.20136 16.1228 3.21635 16.1059 3.24632C15.8846 3.63992 15.6395 4.15342 15.4678 4.55702C13.5327 4.26731 11.6076 4.26731 9.71213 4.55702C9.54044 4.14444 9.2864 3.63992 9.06411 3.24632C9.04723 3.21735 9.0145 3.20236 8.98173 3.20736C7.18357 3.51706 5.46282 4.05952 3.85717 4.7968C3.84327 4.80279 3.83135 4.81279 3.82344 4.82577C0.559537 9.70198 -0.334584 14.4583 0.104042 19.1557C0.106026 19.1787 0.118927 19.2007 0.13679 19.2146C2.29022 20.7961 4.37619 21.7562 6.42342 22.3925C6.45619 22.4025 6.4909 22.3905 6.51175 22.3635C6.99603 21.7022 7.42771 21.0049 7.79784 20.2716C7.81968 20.2287 7.79883 20.1777 7.75419 20.1607C7.06946 19.901 6.41747 19.5843 5.79029 19.2246C5.74068 19.1957 5.73671 19.1247 5.78235 19.0908C5.91433 18.9919 6.04634 18.889 6.17237 18.7851C6.19517 18.7661 6.22694 18.7621 6.25375 18.7741C10.374 20.6552 14.8347 20.6552 18.9064 18.7741C18.9332 18.7611 18.965 18.7651 18.9888 18.7841C19.1148 18.888 19.2468 18.9919 19.3798 19.0908C19.4254 19.1247 19.4224 19.1957 19.3728 19.2246C18.7456 19.5913 18.0936 19.901 17.4079 20.1597C17.3633 20.1767 17.3434 20.2287 17.3653 20.2716C17.7433 21.0039 18.175 21.7012 18.6504 22.3626C18.6702 22.3905 18.7059 22.4025 18.7387 22.3925C20.7959 21.7562 22.8818 20.7961 25.0352 19.2146C25.0541 19.2007 25.066 19.1797 25.068 19.1567C25.5929 13.726 24.1887 9.00867 21.3456 4.82676C21.3387 4.81279 21.3268 4.80279 21.3129 4.7968ZM8.41314 16.2955C7.17265 16.2955 6.15052 15.1566 6.15052 13.758C6.15052 12.3594 7.15283 11.2205 8.41314 11.2205C9.68334 11.2205 10.6956 12.3694 10.6757 13.758C10.6757 15.1566 9.67341 16.2955 8.41314 16.2955ZM16.7788 16.2955C15.5383 16.2955 14.5162 15.1566 14.5162 13.758C14.5162 12.3594 15.5184 11.2205 16.7788 11.2205C18.049 11.2205 19.0612 12.3694 19.0414 13.758C19.0414 15.1566 18.049 16.2955 16.7788 16.2955Z" fill="white"/>
</g>
<defs>
<clipPath id="clip0_36_893">
<rect width="25.1764" height="25.1764" fill="white" transform="translate(0 0.4375)"/>
</clipPath>
</defs>
</svg>
