<svg width="24" height="25" viewBox="0 0 24 25" fill="none" xmlns="http://www.w3.org/2000/svg">
<g opacity="0.7">
<path d="M11.9768 2.6422C15.1717 2.6422 15.548 2.65056 16.8109 2.70911C17.9819 2.75929 18.6091 2.96002 19.0357 3.11893C19.596 3.33638 19.9891 3.59565 20.4157 4.01384C20.8339 4.43202 21.0931 4.83348 21.3106 5.39384C21.4779 5.81202 21.6702 6.44766 21.7204 7.61857C21.779 8.88148 21.7873 9.25785 21.7873 12.4528C21.7873 15.6477 21.779 16.0324 21.7204 17.287C21.6702 18.4579 21.4695 19.0851 21.3106 19.5117C21.0931 20.0721 20.8339 20.4735 20.4157 20.8917C19.9975 21.3099 19.596 21.5692 19.0357 21.7866C18.6175 21.9539 17.9819 22.1462 16.8109 22.1964C15.548 22.255 15.1717 22.2633 11.9768 22.2633C8.78184 22.2633 8.40547 22.255 7.14256 22.1964C5.97165 22.1462 5.34438 21.9455 4.91783 21.7866C4.35747 21.5692 3.96437 21.3099 3.53783 20.8917C3.11964 20.4735 2.86037 20.0721 2.64292 19.5117C2.47564 19.0935 2.28328 18.4579 2.2331 17.287C2.17455 16.024 2.16619 15.6477 2.16619 12.4528C2.16619 9.25785 2.17455 8.88148 2.2331 7.61857C2.28328 6.44766 2.48401 5.82039 2.64292 5.39384C2.86037 4.83348 3.11964 4.44038 3.53783 4.01384C3.95601 3.59565 4.35747 3.33638 4.91783 3.11893C5.33601 2.95165 5.97165 2.75929 7.14256 2.70911C8.40547 2.65056 8.78184 2.6422 11.9768 2.6422ZM11.9768 0.484375C8.72329 0.484375 8.32184 0.501102 7.0422 0.559648C5.77092 0.618194 4.9011 0.818921 4.14001 1.12001C3.35383 1.42947 2.68474 1.83929 2.01564 2.50002C1.34655 3.16911 0.93673 3.82984 0.635638 4.62439C0.34291 5.38548 0.133819 6.2553 0.075273 7.52657C0.0167274 8.80621 0 9.20767 0 12.4611C0 15.7146 0.0167274 16.1244 0.075273 17.3957C0.133819 18.667 0.334546 19.5368 0.635638 20.2979C0.945093 21.0841 1.34655 21.7532 2.01564 22.4222C2.68474 23.0913 3.34546 23.5012 4.14001 23.8022C4.9011 24.095 5.77092 24.3041 7.0422 24.3626C8.32184 24.4212 8.72329 24.4379 11.9768 24.4379C15.2302 24.4379 15.6317 24.4212 16.9113 24.3626C18.1826 24.3041 19.0524 24.1033 19.8135 23.8022C20.5997 23.4928 21.2688 23.083 21.9379 22.4222C22.607 21.7532 23.0168 21.0924 23.3179 20.2979C23.6106 19.5368 23.8197 18.667 23.8782 17.3957C23.9368 16.116 23.9535 15.7146 23.9535 12.4611C23.9535 9.20767 23.9368 8.80621 23.8782 7.52657C23.8197 6.2553 23.619 5.38548 23.3179 4.62439C23.0084 3.8382 22.5986 3.16911 21.9379 2.50002C21.2688 1.83092 20.608 1.4211 19.8135 1.12001C19.0524 0.827285 18.1826 0.618194 16.9113 0.559648C15.6317 0.501102 15.2302 0.484375 11.9768 0.484375Z" fill="white"/>
<path d="M11.9749 6.31543C8.57928 6.31543 5.82764 9.06707 5.82764 12.4627C5.82764 15.8584 8.57928 18.61 11.9749 18.61C15.3706 18.61 18.1222 15.8584 18.1222 12.4627C18.1222 9.06707 15.3706 6.31543 11.9749 6.31543ZM11.9749 16.4522C9.76692 16.4522 7.98546 14.6624 7.98546 12.4627C7.98546 10.2631 9.77528 8.47325 11.9749 8.47325C14.1746 8.47325 15.9644 10.2631 15.9644 12.4627C15.9644 14.6624 14.1746 16.4522 11.9749 16.4522Z" fill="white"/>
<path d="M19.7956 6.07136C19.7956 6.86591 19.1516 7.50991 18.357 7.50991C17.5625 7.50991 16.9185 6.86591 16.9185 6.07136C16.9185 5.27682 17.5625 4.63281 18.357 4.63281C19.1516 4.63281 19.7956 5.27682 19.7956 6.07136Z" fill="white"/>
</g>
</svg>
