<svg width="26" height="23" viewBox="0 0 26 23" fill="none" xmlns="http://www.w3.org/2000/svg">
<path opacity="0.7" d="M24.9809 1.39824C24.7277 0.814374 24.1966 0.484375 23.4859 0.484375C22.9712 0.484375 22.5137 0.653607 22.4565 0.678993C22.3013 0.738225 7.26908 6.69533 1.10098 9.31002C0.561783 9.53849 0.210488 9.86004 0.0634342 10.2747C-0.165317 10.9093 0.267676 11.5609 0.67616 11.747C2.21206 12.4494 5.39823 13.414 6.39493 13.7102C6.72172 14.844 7.87364 18.7957 8.41284 20.4965C8.55172 20.9365 8.96838 21.1988 9.51574 21.1988C9.59744 21.1988 9.64646 21.1988 9.64646 21.1988C9.79351 21.1819 9.92423 21.1058 10.0141 20.9958C10.0958 20.9027 10.1448 20.7842 10.153 20.6573L10.4716 15.8764C11.0762 16.3418 11.9503 17.0272 12.9225 17.7803C14.8424 19.2695 17.1299 21.0296 18.4043 21.9858C18.8618 22.3243 19.2948 22.4935 19.7115 22.4935C20.6347 22.4935 21.1657 21.6727 21.3454 20.9704C22.4075 16.6972 23.9597 8.62462 24.8911 3.8014L25.0953 2.74367C25.226 2.07519 25.1116 1.69441 24.9891 1.40671L24.9809 1.39824ZM9.40954 14.7086L9.1236 18.948C8.42918 16.6379 7.3998 13.1009 7.39163 13.0586C7.39163 13.0501 7.37529 13.0417 7.37529 13.0247V12.9994L19.1314 5.07067C19.1314 5.07067 19.9321 4.50373 20.2344 4.43603C20.6428 4.34295 20.7409 4.51218 20.6673 4.61372C20.3814 5.01143 19.0334 6.213 19.0334 6.213L9.6628 14.2517C9.51574 14.3532 9.41771 14.5225 9.40954 14.7002V14.7086Z" fill="white"/>
</svg>
