<svg width="29" height="21" viewBox="0 0 29 21" fill="none" xmlns="http://www.w3.org/2000/svg">
<path opacity="0.7" d="M27.7059 3.24681C27.3818 1.99234 26.4256 1.00372 25.2019 0.663102C22.9978 0.0566371 14.1487 0.0566406 14.1487 0.0566406C14.1487 0.0566406 5.2997 0.0566371 3.09555 0.663102C1.88002 0.995412 0.915706 1.98403 0.591565 3.24681C8.88732e-06 5.52313 0 10.2752 0 10.2752C0 10.2752 8.88732e-06 15.0272 0.591565 17.3035C0.915706 18.558 1.87192 19.5466 3.09555 19.8872C5.2997 20.4937 14.1487 20.4937 14.1487 20.4937C14.1487 20.4937 22.9978 20.4937 25.2019 19.8872C26.4174 19.5549 27.3818 18.5663 27.7059 17.3035C28.2975 15.0272 28.2974 10.2752 28.2974 10.2752C28.2974 10.2752 28.2975 5.52313 27.7059 3.24681ZM11.2558 14.5869V5.96345L18.6543 10.2752L11.2558 14.5869Z" fill="white"/>
</svg>
