<svg width="1596" height="341" viewBox="0 0 1596 341" fill="none" xmlns="http://www.w3.org/2000/svg">
<mask id="path-1-inside-1_36_12" fill="white">
<path d="M228.735 146.884L192.019 110.163L219.556 0H421.489L412.312 36.7215H247.092L232.177 95.5321L247.092 110.163H393.953L384.775 146.884H228.735Z"/>
<path d="M401.68 146.884L438.395 0H475.111L438.395 146.884H401.68Z"/>
<path d="M537.88 146.884L565.417 36.7215H482.808L491.985 0H693.92L684.741 36.7215H602.132L574.596 146.884H537.88Z"/>
<path d="M674.087 146.884L710.802 0H747.518L710.802 146.884H674.087Z"/>
<path d="M773.578 146.884L736.864 110.163L750.633 55.0813H915.85L916.71 51.6387L902.082 36.7215H755.221L764.401 0H920.439L957.155 36.7215L943.387 91.8028H778.169L777.02 95.5321L791.937 110.163H938.798L929.618 146.884H773.578Z"/>
<path d="M992.408 146.884L955.693 110.163L969.461 55.0813H1001.59L1056.66 0H1185.16L1175.98 36.7215H1075.02L1056.66 55.0813H1171.4L1162.22 91.8028H996.997L995.85 95.5321L1010.77 110.163H1157.63L1148.45 146.884H992.408Z"/>
<path d="M1165.36 146.884L1202.07 0H1238.79L1341.48 102.991L1367.29 0H1404.01L1367.29 146.884H1330.58L1227.6 44.1801L1202.07 146.884H1165.36Z"/>
<path d="M36.7153 341L0 304.28L27.5365 194.116H229.47L220.292 230.837H55.0728L40.1573 289.648L55.0728 304.28H201.933L192.754 341H36.7153Z"/>
<path d="M384.057 304.28L402.416 230.837H273.912L255.555 304.28H384.057ZM209.66 341L246.376 194.116H448.309L411.593 341H209.66Z"/>
<path d="M428.462 341L465.178 194.116H501.892L604.581 297.107L630.396 194.116H667.111L630.396 341H593.68L490.706 238.296L465.178 341H428.462Z"/>
<path d="M647.291 341L674.827 230.837H720.72L757.436 194.116H885.94L876.76 230.837H775.793L757.436 249.197H872.172L862.992 285.919H739.079L720.72 267.559H702.363L684.006 341H647.291Z"/>
<path d="M912.026 341L875.31 304.28L902.847 194.116H939.562L915.468 289.648L930.383 304.28H1077.24L1068.07 341H912.026Z"/>
<path d="M1084.93 341L1121.65 194.116H1158.36L1121.65 341H1084.93Z"/>
<path d="M1184.43 341L1147.71 304.28L1175.25 194.116H1377.18L1368 230.837H1202.79L1187.87 289.648L1202.79 304.28H1349.65L1340.47 341H1184.43Z"/>
<path d="M1439.96 341L1467.5 230.837H1384.89L1394.06 194.116H1596L1586.82 230.837H1504.21L1476.68 341H1439.96Z"/>
</mask>
<path d="M228.735 146.884L192.019 110.163L219.556 0H421.489L412.312 36.7215H247.092L232.177 95.5321L247.092 110.163H393.953L384.775 146.884H228.735Z" stroke="white" stroke-opacity="0.7" stroke-width="2" mask="url(#path-1-inside-1_36_12)"/>
<path d="M401.68 146.884L438.395 0H475.111L438.395 146.884H401.68Z" stroke="white" stroke-opacity="0.7" stroke-width="2" mask="url(#path-1-inside-1_36_12)"/>
<path d="M537.88 146.884L565.417 36.7215H482.808L491.985 0H693.92L684.741 36.7215H602.132L574.596 146.884H537.88Z" stroke="white" stroke-opacity="0.7" stroke-width="2" mask="url(#path-1-inside-1_36_12)"/>
<path d="M674.087 146.884L710.802 0H747.518L710.802 146.884H674.087Z" stroke="white" stroke-opacity="0.7" stroke-width="2" mask="url(#path-1-inside-1_36_12)"/>
<path d="M773.578 146.884L736.864 110.163L750.633 55.0813H915.85L916.71 51.6387L902.082 36.7215H755.221L764.401 0H920.439L957.155 36.7215L943.387 91.8028H778.169L777.02 95.5321L791.937 110.163H938.798L929.618 146.884H773.578Z" stroke="white" stroke-opacity="0.7" stroke-width="2" mask="url(#path-1-inside-1_36_12)"/>
<path d="M992.408 146.884L955.693 110.163L969.461 55.0813H1001.59L1056.66 0H1185.16L1175.98 36.7215H1075.02L1056.66 55.0813H1171.4L1162.22 91.8028H996.997L995.85 95.5321L1010.77 110.163H1157.63L1148.45 146.884H992.408Z" stroke="white" stroke-opacity="0.7" stroke-width="2" mask="url(#path-1-inside-1_36_12)"/>
<path d="M1165.36 146.884L1202.07 0H1238.79L1341.48 102.991L1367.29 0H1404.01L1367.29 146.884H1330.58L1227.6 44.1801L1202.07 146.884H1165.36Z" stroke="white" stroke-opacity="0.7" stroke-width="2" mask="url(#path-1-inside-1_36_12)"/>
<path d="M36.7153 341L0 304.28L27.5365 194.116H229.47L220.292 230.837H55.0728L40.1573 289.648L55.0728 304.28H201.933L192.754 341H36.7153Z" stroke="white" stroke-opacity="0.7" stroke-width="2" mask="url(#path-1-inside-1_36_12)"/>
<path d="M384.057 304.28L402.416 230.837H273.912L255.555 304.28H384.057ZM209.66 341L246.376 194.116H448.309L411.593 341H209.66Z" stroke="white" stroke-opacity="0.7" stroke-width="2" mask="url(#path-1-inside-1_36_12)"/>
<path d="M428.462 341L465.178 194.116H501.892L604.581 297.107L630.396 194.116H667.111L630.396 341H593.68L490.706 238.296L465.178 341H428.462Z" stroke="white" stroke-opacity="0.7" stroke-width="2" mask="url(#path-1-inside-1_36_12)"/>
<path d="M647.291 341L674.827 230.837H720.72L757.436 194.116H885.94L876.76 230.837H775.793L757.436 249.197H872.172L862.992 285.919H739.079L720.72 267.559H702.363L684.006 341H647.291Z" stroke="white" stroke-opacity="0.7" stroke-width="2" mask="url(#path-1-inside-1_36_12)"/>
<path d="M912.026 341L875.31 304.28L902.847 194.116H939.562L915.468 289.648L930.383 304.28H1077.24L1068.07 341H912.026Z" stroke="white" stroke-opacity="0.7" stroke-width="2" mask="url(#path-1-inside-1_36_12)"/>
<path d="M1084.93 341L1121.65 194.116H1158.36L1121.65 341H1084.93Z" stroke="white" stroke-opacity="0.7" stroke-width="2" mask="url(#path-1-inside-1_36_12)"/>
<path d="M1184.43 341L1147.71 304.28L1175.25 194.116H1377.18L1368 230.837H1202.79L1187.87 289.648L1202.79 304.28H1349.65L1340.47 341H1184.43Z" stroke="white" stroke-opacity="0.7" stroke-width="2" mask="url(#path-1-inside-1_36_12)"/>
<path d="M1439.96 341L1467.5 230.837H1384.89L1394.06 194.116H1596L1586.82 230.837H1504.21L1476.68 341H1439.96Z" stroke="white" stroke-opacity="0.7" stroke-width="2" mask="url(#path-1-inside-1_36_12)"/>
</svg>
