<svg width="221" height="47" viewBox="0 0 221 47" fill="none" xmlns="http://www.w3.org/2000/svg">
<path d="M32.2115 20.219L27.1567 15.1642L30.9478 0L58.7489 0L57.4853 5.0548L34.7388 5.0548L32.6854 13.1502L34.7388 15.1642L54.9578 15.1642L53.6943 20.219L32.2115 20.219Z" fill="white"/>
<path d="M56.022 20.219L61.0768 0L66.1316 0L61.0768 20.219H56.022Z" fill="white"/>
<path d="M74.773 20.219L78.5641 5.0548L67.1909 5.0548L68.4544 0L96.2558 0L94.992 5.0548L83.6189 5.0548L79.8278 20.219L74.773 20.219Z" fill="white"/>
<path d="M93.5254 20.219L98.5802 0L103.635 0L98.5802 20.219H93.5254Z" fill="white"/>
<path d="M107.223 20.219L102.168 15.1642L104.063 7.58209L126.81 7.58209L126.928 7.10821L124.914 5.0548L104.695 5.0548L105.959 0L127.442 0L132.496 5.0548L130.601 12.6369L107.855 12.6369L107.696 13.1502L109.75 15.1642L129.969 15.1642L128.705 20.219L107.223 20.219Z" fill="white"/>
<path d="M137.35 20.219L132.295 15.1642L134.191 7.58209L138.614 7.58209L146.196 0L163.888 0L162.624 5.0548L148.723 5.0548L146.196 7.58209L161.992 7.58209L160.728 12.6369L137.982 12.6369L137.824 13.1502L139.878 15.1642L160.097 15.1642L158.833 20.219L137.35 20.219Z" fill="white"/>
<path d="M161.161 20.219L166.215 0L171.27 0L185.408 14.1769L188.962 0L194.017 0L188.962 20.219H183.907L169.73 6.08151L166.215 20.219H161.161Z" fill="white"/>
<path d="M5.77546 46.9392L0.720703 41.8846L4.51177 26.7202L32.3128 26.7202L31.0493 31.775L8.30282 31.775L6.24934 39.8705L8.30282 41.8846L28.5218 41.8846L27.258 46.9392H5.77546Z" fill="white"/>
<path d="M53.5955 41.8846L56.123 31.775L38.4313 31.775L35.904 41.8846H53.5955ZM29.5854 46.9392L34.6403 26.7202L62.4413 26.7202L57.3865 46.9392H29.5854Z" fill="white"/>
<path d="M59.709 46.9392L64.7638 26.7202H69.8184L83.9561 40.8972L87.5101 26.7202H92.5649L87.5101 46.9392H82.4553L68.2783 32.8017L64.7638 46.9392H59.709Z" fill="white"/>
<path d="M89.8364 46.9392L93.6275 31.775H99.9458L105.001 26.7202H122.692L121.429 31.775L107.528 31.775L105.001 34.3023L120.797 34.3023L119.533 39.3571L102.473 39.3571L99.9458 36.8298H97.4185L94.8912 46.9392H89.8364Z" fill="white"/>
<path d="M126.283 46.9392L121.229 41.8846L125.02 26.7202H130.074L126.757 39.8705L128.811 41.8846L149.03 41.8846L147.766 46.9392H126.283Z" fill="white"/>
<path d="M150.088 46.9392L155.143 26.7202H160.198L155.143 46.9392H150.088Z" fill="white"/>
<path d="M163.786 46.9392L158.731 41.8846L162.523 26.7202L190.324 26.7202L189.06 31.775L166.314 31.775L164.26 39.8705L166.314 41.8846L186.533 41.8846L185.269 46.9392H163.786Z" fill="white"/>
<path d="M198.966 46.9392L202.757 31.775H191.384L192.648 26.7202L220.449 26.7202L219.185 31.775H207.812L204.021 46.9392H198.966Z" fill="white"/>
</svg>
