<svg width="31" height="31" viewBox="0 0 31 31" fill="none" xmlns="http://www.w3.org/2000/svg">
<path d="M10.3859 13.0283L13.0507 10.3677C13.1834 10.2351 13.3634 10.1606 13.5511 10.1603H17.3176C17.4106 10.1603 17.5027 10.1787 17.5885 10.2143C17.6744 10.2498 17.7524 10.302 17.8181 10.3677L20.6906 13.2357L25.1443 11.3936L19.663 5.92075C19.5973 5.85502 19.5193 5.8029 19.4334 5.7673C19.3476 5.73176 19.2556 5.71343 19.1626 5.71338H11.7078C11.5202 5.71363 11.3402 5.78819 11.2074 5.92075L5.93374 11.1863C5.80099 11.3188 5.72633 11.4985 5.72607 11.686V14.7613H10.1799V13.5288C10.1794 13.3413 10.2536 13.1613 10.3859 13.0283Z" fill="white"/>
<path d="M5.93374 19.6311L11.2074 24.9008C11.3402 25.0333 11.5202 25.1079 11.7078 25.1081H19.1659C19.2589 25.1081 19.3509 25.0898 19.4368 25.0542C19.5227 25.0186 19.6006 24.9665 19.6663 24.9008L25.1477 19.4279L20.6939 17.5858L17.8214 20.4538C17.7557 20.5195 17.6778 20.5717 17.5919 20.6073C17.506 20.6428 17.414 20.6611 17.321 20.6612H13.5545C13.3667 20.6609 13.1867 20.5864 13.054 20.4538L10.3876 17.789C10.2548 17.6565 10.1801 17.4768 10.1799 17.2893V16.0552H5.72607V19.1306C5.72607 19.3183 5.80079 19.4983 5.93374 19.6311Z" fill="white"/>
<path d="M19.696 26.3997H11.167C10.9794 26.3991 10.7996 26.3246 10.6666 26.1924L4.63478 20.1657C4.50203 20.0332 4.42736 19.8535 4.42711 19.666V16.0552H0V21.4956C0.00060252 21.683 0.0752146 21.8625 0.207669 21.9953L8.83173 30.606C8.96454 30.7384 9.14444 30.8129 9.33213 30.8133H21.5292C21.7169 30.8127 21.8967 30.7382 22.0297 30.606L30.8631 21.7896L26.4368 19.9575L20.1973 26.1874C20.1318 26.254 20.0539 26.3071 19.9679 26.3436C19.8818 26.38 19.7895 26.3991 19.696 26.3997Z" fill="white"/>
<path d="M4.63398 10.6485L10.665 4.6268C10.7979 4.49459 10.9777 4.42003 11.1654 4.41943H19.6952C19.8829 4.41968 20.0629 4.49424 20.1956 4.6268L26.4351 10.8567L30.8614 9.02464L22.0305 0.207367C21.8976 0.0751143 21.7177 0.00060252 21.5301 0H9.33213C9.14444 0.00040168 8.96454 0.0749637 8.83173 0.207367L0.207669 8.81807C0.0752146 8.95083 0.00060252 9.13038 0 9.31776V14.7582H4.42546V11.1498C4.42586 10.9617 4.50082 10.7815 4.63398 10.6485Z" fill="white"/>
</svg>
