<svg width="112" height="40" viewBox="0 0 112 40" fill="none" xmlns="http://www.w3.org/2000/svg">
<g clip-path="url(#clip0_49_1746)">
<path d="M46.2788 5.11957C45.9416 4.7449 45.6044 4.37022 45.2297 3.99554C42.7943 1.71002 39.4972 0.286255 35.8629 0.286255C31.8913 0.286255 28.2944 2.00976 25.7841 4.7449C25.4469 5.11957 25.1097 5.53171 24.8099 5.94386C23.2737 8.07951 22.2996 10.6273 22.1872 13.4374C22.1872 13.6247 22.2247 13.812 22.2247 14.0369C22.2247 14.2242 22.2247 14.449 22.1872 14.6363C22.1123 15.8728 21.775 16.9968 21.213 18.0459C20.4637 19.4696 19.3022 20.6686 17.8784 21.4554V27.1505C20.2014 26.4011 22.2621 25.0898 23.8358 23.3288C24.173 22.9541 24.5102 22.542 24.8099 22.1298C26.3461 19.9942 27.3202 17.4464 27.4326 14.6363C27.4326 14.449 27.3952 14.2242 27.3952 14.0369C27.3952 13.8495 27.3952 13.6247 27.4326 13.4374C27.5076 12.2009 27.8448 11.0394 28.4068 10.0278C29.8306 7.36763 32.6406 5.56918 35.8629 5.56918C38.8603 5.56918 41.483 7.10535 42.9817 9.46581C43.8434 10.7772 44.3305 12.3508 44.3305 14.0369C44.3305 14.8986 44.1806 15.7604 43.9558 16.5472C42.8693 19.9942 39.6471 22.5045 35.8629 22.5045C32.6406 22.5045 29.8306 20.7061 28.4068 18.0459C27.8823 19.9942 26.983 21.7552 25.7841 23.3288C28.2944 26.0639 31.8913 27.75 35.8629 27.75C39.7595 27.75 43.2814 26.1014 45.7918 23.5161C46.3163 22.9916 46.7659 22.3921 47.1781 21.7926C47.2905 21.6053 47.4403 21.418 47.5527 21.2306C47.815 20.781 48.0773 20.3314 48.2646 19.8818C49.0889 18.1208 49.5385 16.135 49.5385 14.0743C49.576 10.6273 48.3395 7.5175 46.2788 5.11957Z" fill="white"/>
<path d="M13.7205 17.7087C12.2592 17.7087 11.0977 18.8702 11.0977 20.3314V20.4813V22.0924C10.5732 21.905 10.0861 21.7177 9.59902 21.418C7.01376 19.9567 5.25278 17.1841 5.25278 14.0369C5.25278 9.35341 9.03701 5.56918 13.7205 5.56918C16.9427 5.56918 19.7527 7.36763 21.1765 10.0278C21.701 8.07951 22.6003 6.31853 23.7992 4.7449C21.2889 2.00976 17.692 0.286255 13.7205 0.286255C6.15201 0.286255 0.00732422 6.43094 0.00732422 13.9994C0.00732422 20.1066 4.05382 25.3146 9.59902 27.0756C10.0861 27.2254 10.5732 27.3753 11.0977 27.4502V28.1247C11.0977 28.4244 11.1352 28.7241 11.2476 29.0239C11.6223 30.0355 12.559 30.7474 13.7205 30.7474C14.882 30.7474 15.8186 30.0355 16.1933 29.0239C16.3057 28.7616 16.3432 28.4619 16.3432 28.1247V27.4502V22.0924V20.4813V20.3314C16.3432 18.8702 15.1817 17.7087 13.7205 17.7087Z" fill="white"/>
<path d="M65.7627 23.3643C66.6244 24.3385 66.6619 25.7623 65.8751 26.7364C65.6877 26.2868 65.6128 25.7997 65.6128 25.2752V23.177C65.6503 23.2519 65.7252 23.3269 65.7627 23.3643Z" fill="white"/>
<path d="M89.4422 9.24101C89.3673 8.86633 89.2923 8.49165 89.1425 8.11698C89.0301 7.7423 88.9177 7.40509 88.7303 7.03042C88.4306 6.31853 88.0559 5.64412 87.6438 5.04464C87.6063 5.00717 87.6063 4.9697 87.5688 4.93224C87.3066 4.55756 87.0068 4.18288 86.6696 3.84567C86.6321 3.80821 86.6321 3.80821 86.5947 3.77074C84.5714 1.63509 81.6864 0.286255 78.5017 0.286255C76.7782 0.286255 75.1671 0.660931 73.7433 1.37282C73.2937 1.59762 72.8815 1.82243 72.4694 2.0847L72.4319 2.12217C70.2588 3.54593 68.5728 5.79399 67.8609 8.41672C67.5986 9.35341 67.4487 10.365 67.4487 11.3767V17.1467V25.2771C67.4487 25.8391 67.6361 26.3637 67.9358 26.8133C68.4229 27.4877 69.1722 27.8999 70.0715 27.8999C71.5327 27.8999 72.6942 26.7384 72.6942 25.2771V22.4296V20.781C73.1438 21.0808 73.6309 21.3056 74.118 21.5304C75.4668 22.1299 76.9655 22.4671 78.5391 22.4671C80.6373 22.4671 82.6231 21.8676 84.2717 20.856C84.3091 20.856 84.3466 20.8185 84.3466 20.8185C84.7588 20.5562 85.1334 20.2939 85.5081 19.9942C85.5456 19.9567 85.5456 19.9567 85.583 19.9193C86.9693 18.7578 88.0934 17.2591 88.7678 15.573C88.8052 15.4606 88.8427 15.3482 88.9177 15.2358C88.9926 15.0859 89.0301 14.9361 89.0675 14.7487C89.1799 14.449 89.2549 14.1118 89.3298 13.8121C89.3673 13.6622 89.4047 13.4748 89.4422 13.325C89.4797 13.0252 89.5546 12.7255 89.5546 12.4257C89.5921 12.0885 89.5921 11.7513 89.5921 11.3767C89.667 10.6648 89.5921 9.91542 89.4422 9.24101ZM84.2717 12.5382C84.0469 13.5872 83.5598 14.5614 82.8479 15.3108C82.8104 15.3482 82.773 15.3857 82.7355 15.4232C82.5482 15.648 82.3234 15.8353 82.0986 15.9852C81.8737 16.1725 81.6489 16.3224 81.4241 16.4348C80.5999 16.8844 79.6257 17.1841 78.6141 17.1841C76.8531 17.1841 75.2795 16.3973 74.1929 15.1609C73.3311 14.1493 72.7691 12.8379 72.7691 11.3767C72.7691 9.91542 73.2937 8.60406 74.1929 7.59243C75.242 6.356 76.8531 5.56918 78.6141 5.56918C79.7006 5.56918 80.7123 5.86892 81.574 6.39347C82.4732 6.91802 83.1851 7.70483 83.6722 8.60406C83.7097 8.64152 83.7097 8.71646 83.7471 8.75393C84.1593 9.54075 84.3841 10.44 84.3841 11.3767C84.3841 11.5265 84.3841 11.6389 84.3841 11.7888C84.3841 11.9012 84.3466 12.0136 84.3466 12.126C84.3466 12.126 84.3466 12.126 84.3466 12.1635C84.3091 12.3133 84.3091 12.4257 84.2717 12.5382Z" fill="white"/>
<path d="M55.3722 5.56566C58.5944 5.56566 61.1796 8.15092 61.1796 11.3731C61.1796 13.6212 59.8683 15.607 57.9949 16.5437C59.5311 17.1057 61.367 17.93 63.2029 19.1664C64.2145 18.1548 65.0388 16.9183 65.6008 15.607C65.7881 15.1948 65.938 14.7452 66.0504 14.3331C66.3127 13.3964 66.4626 12.4222 66.4626 11.4106C66.4626 10.399 66.3127 9.38735 66.0504 8.45066C65.938 8.00105 65.7881 7.58891 65.6008 7.17676C63.9522 3.16773 59.9807 0.357666 55.4096 0.357666C52.1874 0.357666 49.2649 1.74397 47.2417 3.95455C48.5156 5.37832 49.5272 7.02689 50.1642 8.8628C51.1009 6.91449 53.0866 5.56566 55.3722 5.56566Z" fill="white"/>
<path d="M65.5659 23.1763C64.854 22.3895 64.0672 21.6776 63.2804 21.0781C62.8682 20.7409 62.4186 20.4411 62.0065 20.1789C58.9341 18.1556 55.8618 17.3688 54.5504 17.1065C54.5504 17.1065 54.5504 17.1065 54.513 17.1065C54.3256 17.0691 54.1758 17.0316 54.0634 17.0316C54.0259 17.0316 54.0259 17.0316 54.0259 17.0316C53.1641 16.8443 52.4148 16.4321 51.7404 15.9076C51.4781 15.7202 51.2533 15.458 51.0285 15.2332C50.991 15.6453 50.9535 16.0949 50.8786 16.5071C50.6538 17.9683 50.2042 19.3546 49.5672 20.666C49.5672 20.7034 49.5298 20.7409 49.5298 20.7784C49.5673 20.8158 49.6047 20.8158 49.6422 20.8533C49.7921 20.9282 49.9045 21.0032 50.0543 21.0781C50.7287 21.4528 51.4781 21.79 52.2649 22.0148C52.4897 22.0897 52.752 22.1647 52.9768 22.2021C53.0517 22.2396 53.1267 22.2396 53.2016 22.2396C53.2016 22.2396 53.2765 22.2396 53.3515 22.2771C53.3889 22.2771 53.3889 22.2771 53.4264 22.2771C53.5013 22.3145 53.5763 22.3145 53.6512 22.3145C54.4006 22.4644 55.9367 22.8765 57.6977 23.7383C59.1215 24.4502 60.6202 25.4618 61.8941 26.8856C62.4186 27.4476 63.1305 27.7473 63.8424 27.7473C64.4793 27.7473 65.0788 27.5225 65.6034 27.0729C65.7158 26.9605 65.8282 26.8481 65.9031 26.7357C66.6899 25.7615 66.6899 24.3378 65.7907 23.3636C65.7158 23.3262 65.6408 23.2512 65.5659 23.1763Z" fill="white"/>
<path d="M49.5684 22.5002C49.0813 22.5002 48.6317 22.6126 48.2196 22.8375C47.6576 23.1747 47.2454 23.6617 47.0581 24.2612C46.9831 24.5235 46.9082 24.7858 46.9082 25.0855C46.9082 26.5467 48.0697 27.7082 49.5309 27.7082C50.9922 27.7082 52.1537 26.5467 52.1537 25.0855C52.1537 24.3736 51.8539 23.7367 51.4043 23.2496C50.9547 22.8 50.3177 22.5002 49.5684 22.5002Z" fill="white"/>
<path d="M97.946 0.286255C94.3866 0.286255 91.1269 1.63509 88.6915 3.88314C88.6915 3.92061 88.729 3.92061 88.7664 3.95808C89.8905 5.45678 90.6398 7.25522 90.977 9.16607C92.5132 6.95548 95.061 5.49425 97.946 5.49425C102.629 5.49425 106.414 9.27847 106.414 13.9619C106.414 18.6454 102.629 22.4296 97.946 22.4296C94.2367 22.4296 91.0894 20.0691 89.9654 16.7345C89.1411 18.458 87.9047 19.9942 86.406 21.1932C86.3685 21.1932 86.3685 21.2306 86.3311 21.2306C88.7664 25.0898 93.0752 27.675 97.946 27.675C105.514 27.675 111.659 21.5304 111.659 13.9619C111.659 6.43094 105.477 0.286255 97.946 0.286255Z" fill="white"/>
<path d="M33.9131 10.5876V17.3693L39.7955 13.9972L33.9131 10.5876Z" fill="white"/>
<path d="M22.4214 37.6466C22.4214 37.7097 22.4101 37.7684 22.3875 37.8226C22.365 37.8767 22.3334 37.9241 22.2928 37.9647C22.2544 38.0031 22.2081 38.0336 22.154 38.0561C22.0998 38.0787 22.0412 38.09 21.978 38.09H18.8031C18.7218 38.09 18.6338 38.0809 18.539 38.0629C18.4465 38.0426 18.354 38.0121 18.2615 37.9715C18.1712 37.9309 18.0843 37.879 18.0009 37.8158C17.9174 37.7504 17.8429 37.6725 17.7775 37.5822C17.7143 37.4897 17.6635 37.3837 17.6251 37.2641C17.5868 37.1422 17.5676 37.0057 17.5676 36.8545V34.4716C17.5676 34.3904 17.5766 34.3035 17.5947 34.211C17.615 34.1162 17.6455 34.0237 17.6861 33.9334C17.7267 33.8409 17.7797 33.7529 17.8452 33.6694C17.9106 33.5859 17.9884 33.5126 18.0787 33.4494C18.1712 33.384 18.2773 33.3321 18.3969 33.2937C18.5165 33.2554 18.6519 33.2362 18.8031 33.2362H22.3808V34.1162H18.8031C18.688 34.1162 18.6 34.1467 18.539 34.2076C18.4781 34.2685 18.4476 34.3588 18.4476 34.4784V36.8545C18.4476 36.9673 18.4781 37.0553 18.539 37.1185C18.6022 37.1795 18.6902 37.2099 18.8031 37.2099H21.5413V36.1065H19.1991V35.2197H21.978C22.0412 35.2197 22.0998 35.2321 22.154 35.2569C22.2081 35.2795 22.2544 35.3111 22.2928 35.3517C22.3334 35.3923 22.365 35.4397 22.3875 35.4938C22.4101 35.5457 22.4214 35.6021 22.4214 35.6631V37.6466ZM29.9034 38.09H29.0234V36.8985H25.9297V38.09H25.0496V35.6631C25.0496 35.3088 25.1105 34.9827 25.2324 34.6849C25.3542 34.387 25.5235 34.1309 25.7401 33.9165C25.9567 33.7022 26.2129 33.5352 26.5085 33.4156C26.8041 33.296 27.1267 33.2362 27.4765 33.2362H29.46C29.5209 33.2362 29.5785 33.2475 29.6326 33.27C29.6868 33.2926 29.7342 33.3242 29.7748 33.3648C29.8154 33.4054 29.847 33.4528 29.8696 33.507C29.8921 33.5611 29.9034 33.6187 29.9034 33.6796V38.09ZM25.9297 36.0185H29.0234V34.1162H27.4765C27.4494 34.1162 27.3919 34.1207 27.3039 34.1298C27.2181 34.1365 27.1177 34.1557 27.0026 34.1873C26.8898 34.2189 26.7702 34.2674 26.6438 34.3329C26.5175 34.3983 26.4013 34.4886 26.2952 34.6036C26.1892 34.7187 26.1012 34.8631 26.0312 35.0369C25.9635 35.2084 25.9297 35.4171 25.9297 35.6631V36.0185ZM38.3805 38.09H37.4937V35.1994L35.9333 37.9444C35.895 38.0144 35.8408 38.0674 35.7709 38.1035C35.7032 38.1396 35.6298 38.1577 35.5509 38.1577C35.4741 38.1577 35.4019 38.1396 35.3342 38.1035C35.2688 38.0674 35.2169 38.0144 35.1785 37.9444L33.6114 35.1994V38.09H32.7313V33.6119C32.7313 33.5103 32.7607 33.4201 32.8193 33.3411C32.8803 33.2621 32.9592 33.2091 33.0563 33.182C33.1036 33.1707 33.151 33.1674 33.1984 33.1719C33.2458 33.1741 33.2909 33.1843 33.3338 33.2023C33.3789 33.2181 33.4196 33.2418 33.4557 33.2734C33.4918 33.3027 33.5222 33.3389 33.5471 33.3817L35.5509 36.8647L37.5546 33.3817C37.6065 33.296 37.6776 33.2351 37.7679 33.1989C37.8604 33.1628 37.9563 33.1572 38.0556 33.182C38.1504 33.2091 38.2282 33.2621 38.2891 33.3411C38.3501 33.4201 38.3805 33.5103 38.3805 33.6119V38.09ZM45.1991 36.1065H42.4202V35.2197H45.1991V36.1065ZM45.5951 38.09H42.4202C42.2984 38.09 42.1652 38.0685 42.0208 38.0257C41.8764 37.9828 41.7421 37.9128 41.618 37.8158C41.4962 37.7165 41.3935 37.589 41.31 37.4333C41.2288 37.2754 41.1881 37.0824 41.1881 36.8545V33.6796C41.1881 33.6187 41.1994 33.5611 41.222 33.507C41.2446 33.4528 41.275 33.4054 41.3134 33.3648C41.354 33.3242 41.4014 33.2926 41.4555 33.27C41.5097 33.2475 41.5684 33.2362 41.6316 33.2362H45.5951V34.1162H42.0682V36.8545C42.0682 36.9696 42.0987 37.0576 42.1596 37.1185C42.2205 37.1795 42.3096 37.2099 42.427 37.2099H45.5951V38.09ZM56.9713 36.6616C56.9713 36.8353 56.9487 36.9922 56.9036 37.1321C56.8607 37.2697 56.8032 37.3916 56.731 37.4976C56.6588 37.6037 56.5741 37.6939 56.4771 37.7684C56.3801 37.8429 56.2797 37.9038 56.1759 37.9512C56.0721 37.9986 55.966 38.0336 55.8577 38.0561C55.7516 38.0787 55.6512 38.09 55.5564 38.09H52.1615V37.2099H55.5564C55.7257 37.2099 55.8566 37.1603 55.9491 37.061C56.0439 36.9617 56.0912 36.8286 56.0912 36.6616C56.0912 36.5804 56.0788 36.5059 56.054 36.4382C56.0292 36.3705 55.9931 36.3118 55.9457 36.2622C55.9006 36.2125 55.8441 36.1742 55.7765 36.1471C55.711 36.12 55.6377 36.1065 55.5564 36.1065H53.5323C53.3902 36.1065 53.2367 36.0817 53.072 36.032C52.9073 35.9801 52.7538 35.8978 52.6117 35.7849C52.4718 35.6721 52.3544 35.5243 52.2597 35.3415C52.1671 35.1587 52.1209 34.9353 52.1209 34.6713C52.1209 34.4073 52.1671 34.185 52.2597 34.0045C52.3544 33.8217 52.4718 33.6739 52.6117 33.5611C52.7538 33.446 52.9073 33.3637 53.072 33.314C53.2367 33.2621 53.3902 33.2362 53.5323 33.2362H56.5279V34.1162H53.5323C53.3654 34.1162 53.2345 34.167 53.1397 34.2685C53.0472 34.3701 53.0009 34.5043 53.0009 34.6713C53.0009 34.8406 53.0472 34.9748 53.1397 35.0741C53.2345 35.1711 53.3654 35.2197 53.5323 35.2197H55.5564H55.5632C55.658 35.2219 55.7584 35.2355 55.8645 35.2603C55.9705 35.2828 56.0754 35.319 56.1792 35.3686C56.2853 35.4182 56.3857 35.4814 56.4805 35.5581C56.5753 35.6326 56.6588 35.7229 56.731 35.8289C56.8054 35.935 56.8641 36.0568 56.907 36.1945C56.9498 36.3321 56.9713 36.4878 56.9713 36.6616ZM63.8373 34.1162H61.8978V38.09H61.0177V34.1162H59.0749V33.2362H63.8373V34.1162ZM71.0451 37.6466C71.0451 37.7097 71.0338 37.7684 71.0112 37.8226C70.9887 37.8767 70.9571 37.9241 70.9165 37.9647C70.8759 38.0031 70.8285 38.0336 70.7743 38.0561C70.7202 38.0787 70.6626 38.09 70.6017 38.09H68.6182C68.4309 38.09 68.2414 38.0697 68.0496 38.029C67.8578 37.9884 67.6716 37.9264 67.4911 37.8429C67.3128 37.7571 67.1447 37.6488 66.9867 37.5179C66.8288 37.3871 66.69 37.2325 66.5704 37.0542C66.4531 36.8737 66.3605 36.6684 66.2929 36.4382C66.2252 36.2058 66.1913 35.9474 66.1913 35.6631V33.2362H67.0714V35.6631C67.0714 35.9113 67.1052 36.1211 67.1729 36.2926C67.2429 36.4641 67.3309 36.6074 67.4369 36.7225C67.543 36.8376 67.6592 36.9279 67.7855 36.9933C67.9119 37.0587 68.0315 37.1072 68.1443 37.1388C68.2594 37.1704 68.3598 37.1907 68.4456 37.1998C68.5336 37.2065 68.5911 37.2099 68.6182 37.2099H70.1651V33.2362H71.0451V37.6466ZM78.7167 36.0591C78.7167 36.3547 78.6648 36.6266 78.561 36.8748C78.4594 37.123 78.3184 37.3374 78.1379 37.5179C77.9573 37.6962 77.743 37.8361 77.4947 37.9377C77.2465 38.0392 76.9769 38.09 76.6858 38.09H74.3097C74.2465 38.09 74.1878 38.0787 74.1337 38.0561C74.0795 38.0336 74.0321 38.0031 73.9915 37.9647C73.9531 37.9241 73.9227 37.8767 73.9001 37.8226C73.8775 37.7684 73.8663 37.7097 73.8663 37.6466V33.6796C73.8663 33.6187 73.8775 33.5611 73.9001 33.507C73.9227 33.4528 73.9531 33.4054 73.9915 33.3648C74.0321 33.3242 74.0795 33.2926 74.1337 33.27C74.1878 33.2475 74.2465 33.2362 74.3097 33.2362H76.6858C76.9769 33.2362 77.2465 33.287 77.4947 33.3885C77.743 33.49 77.9573 33.6311 78.1379 33.8116C78.3184 33.9899 78.4594 34.2042 78.561 34.4547C78.6648 34.7029 78.7167 34.9737 78.7167 35.2671V36.0591ZM77.8366 35.2671C77.8366 35.0956 77.8084 34.9387 77.752 34.7966C77.6978 34.6544 77.62 34.5337 77.5184 34.4344C77.4169 34.3329 77.295 34.255 77.1529 34.2008C77.013 34.1444 76.8573 34.1162 76.6858 34.1162H74.7463V37.2099H76.6858C76.8573 37.2099 77.013 37.1828 77.1529 37.1287C77.295 37.0723 77.4169 36.9944 77.5184 36.8951C77.62 36.7936 77.6978 36.6729 77.752 36.533C77.8084 36.3908 77.8366 36.2328 77.8366 36.0591V35.2671ZM82.2689 38.09H81.3889V33.2362H82.2689V38.09ZM90.1943 36.1268C90.1943 36.4224 90.1436 36.6943 90.042 36.9425C89.9405 37.1907 89.7994 37.4051 89.6189 37.5856C89.4384 37.7662 89.224 37.9072 88.9758 38.0087C88.7299 38.108 88.4613 38.1577 88.1702 38.1577H86.9788C86.6877 38.1577 86.418 38.108 86.1698 38.0087C85.9216 37.9072 85.7072 37.7662 85.5267 37.5856C85.3462 37.4051 85.204 37.1907 85.1002 36.9425C84.9987 36.6943 84.9479 36.4224 84.9479 36.1268V35.1994C84.9479 34.906 84.9987 34.6352 85.1002 34.387C85.204 34.1365 85.3462 33.9222 85.5267 33.7439C85.7072 33.5634 85.9216 33.4223 86.1698 33.3208C86.418 33.2193 86.6877 33.1685 86.9788 33.1685H88.1702C88.4613 33.1685 88.7299 33.2193 88.9758 33.3208C89.224 33.4223 89.4384 33.5634 89.6189 33.7439C89.7994 33.9222 89.9405 34.1365 90.042 34.387C90.1436 34.6352 90.1943 34.906 90.1943 35.1994V36.1268ZM89.3143 35.1994C89.3143 35.0256 89.2861 34.8688 89.2297 34.7289C89.1755 34.5867 89.0977 34.466 88.9961 34.3667C88.8968 34.2652 88.7761 34.1873 88.6339 34.1331C88.494 34.0767 88.3395 34.0485 88.1702 34.0485H86.9788C86.8073 34.0485 86.6505 34.0767 86.5083 34.1331C86.3684 34.1873 86.2477 34.2652 86.1461 34.3667C86.0446 34.466 85.9656 34.5867 85.9092 34.7289C85.855 34.8688 85.828 35.0256 85.828 35.1994V36.1268C85.828 36.3005 85.855 36.4585 85.9092 36.6007C85.9656 36.7406 86.0446 36.8613 86.1461 36.9628C86.2477 37.0621 86.3684 37.14 86.5083 37.1964C86.6505 37.2505 86.8073 37.2776 86.9788 37.2776H88.1635C88.335 37.2776 88.4907 37.2505 88.6306 37.1964C88.7727 37.14 88.8946 37.0621 88.9961 36.9628C89.0977 36.8613 89.1755 36.7406 89.2297 36.6007C89.2861 36.4585 89.3143 36.3005 89.3143 36.1268V35.1994Z" fill="white"/>
</g>
<defs>
<clipPath id="clip0_49_1746">
<rect width="111.954" height="39.8331" fill="white"/>
</clipPath>
</defs>
</svg>
