<svg width="55" height="55" viewBox="0 0 55 55" fill="none" xmlns="http://www.w3.org/2000/svg">
<path d="M0 40.5969C0.00909129 44.42 1.53229 48.0834 4.23549 50.7835C6.93868 53.4836 10.6011 55 14.4195 55H40.5805C42.4741 55 44.3492 54.6266 46.0986 53.901C47.8481 53.1755 49.4377 52.112 50.7766 50.7714C52.1156 49.4307 53.1777 47.8391 53.9024 46.0875C54.627 44.3359 55 42.4585 55 40.5625V14.4375C55 12.5387 54.6259 10.6585 53.8991 8.90459C53.1723 7.15071 52.1071 5.55761 50.7645 4.21651C49.4219 2.87542 47.8282 1.81267 46.0748 1.08915C44.3214 0.36562 42.4427 -0.00448015 40.5462 4.09263e-05H14.4195C10.5952 4.09263e-05 6.92754 1.52113 4.22337 4.22868C1.51919 6.93624 0 10.6085 0 14.4375V40.5969ZM18.7865 19.0094C18.7882 18.5499 18.9103 18.0989 19.1405 17.7014C19.3708 17.3039 19.7012 16.9738 20.0987 16.7442C20.4962 16.5145 20.947 16.3934 21.4059 16.3927C21.8649 16.3921 22.316 16.5121 22.7141 16.7407L37.3945 25.2313C37.7923 25.4611 38.1227 25.7918 38.3524 26.1901C38.5822 26.5883 38.7031 27.0401 38.7031 27.5C38.7031 27.9599 38.5822 28.4117 38.3524 28.81C38.1227 29.2082 37.7923 29.5389 37.3945 29.7688L22.7141 38.2594C22.3164 38.4893 21.8653 38.6103 21.4061 38.6103C20.9468 38.6103 20.4957 38.4893 20.098 38.2594C19.6977 38.0321 19.3652 37.702 19.1347 37.3033C18.9042 36.9045 18.784 36.4514 18.7865 35.9906V19.0094Z" fill="white"/>
</svg>
