<svg width="78" height="74" viewBox="0 0 78 74" fill="none" xmlns="http://www.w3.org/2000/svg">
<path fill-rule="evenodd" clip-rule="evenodd" d="M40.9683 0V4.71346C57.622 5.59329 70.9296 19.0931 71.5042 35.826H77.6736V39.6721H71.4108C70.078 55.663 57.0912 68.3432 40.9683 69.195V73.9085H37.1221V69.1724C21.1774 68.1413 8.38582 55.5359 7.06359 39.6721H0.800781V35.826H6.97015C7.54039 19.2219 20.6483 5.80132 37.1221 4.73601V0H40.9683ZM12.8937 33.9029C14.2544 22.0271 23.4603 12.5362 35.199 10.7426V30.3337H42.8914V10.6868C54.8129 12.33 64.2052 21.8979 65.5806 33.9029H46.782V41.5952H65.3495C63.3633 52.8474 54.2817 61.6516 42.8914 63.2216V45.2204H35.199V63.1658C23.989 61.453 15.0888 52.7207 13.1248 41.5952H31.3084V33.9029H12.8937Z" fill="white"/>
</svg>
