<svg width="68" height="63" viewBox="0 0 68 63" fill="none" xmlns="http://www.w3.org/2000/svg">
<path fill-rule="evenodd" clip-rule="evenodd" d="M16.8572 0.202148L22.3324 20.6355L0.941406 14.904V47.296L22.8158 41.4348L17.2049 62.3768H50.9162L45.3053 41.4348L67.1797 47.296V14.904L45.7887 20.6355L51.2639 0.202148H16.8572ZM23.619 5.39062H44.5021L38.4511 27.9731L61.9912 21.6657V40.5343L37.9678 34.0972L44.1546 57.1883H23.9665L30.1532 34.0972L6.12988 40.5343V21.6657L29.67 27.9731L23.619 5.39062Z" fill="white"/>
<path fill-rule="evenodd" clip-rule="evenodd" d="M54.3663 5.6779L60.8071 12.1187L49.2386 19.0251L47.4599 17.2464L54.3663 5.6779ZM54.8867 9.86714L52.3223 14.1627L56.6178 11.5983L54.8867 9.86714Z" fill="white"/>
<path fill-rule="evenodd" clip-rule="evenodd" d="M13.7548 5.6779L7.31399 12.1187L18.8825 19.0251L20.6612 17.2464L13.7548 5.6779ZM15.7988 14.1627L11.5032 11.5983L13.2344 9.86714L15.7988 14.1627Z" fill="white"/>
<path fill-rule="evenodd" clip-rule="evenodd" d="M47.4599 45.3325L49.2386 43.5539L60.8071 50.4602L54.3663 56.901L47.4599 45.3325ZM52.3223 48.4162L54.8867 52.7118L56.6178 50.9807L52.3223 48.4162Z" fill="white"/>
<path fill-rule="evenodd" clip-rule="evenodd" d="M18.8825 43.5539L7.31399 50.4602L13.7548 56.901L20.6612 45.3325L18.8825 43.5539ZM13.2344 52.7118L11.5032 50.9807L15.7988 48.4162L13.2344 52.7118Z" fill="white"/>
<path d="M48.1993 2.3623H20.7398L25.8761 24.0928L3.35547 18.5614V43.4527L25.8761 37.9213L20.7398 59.6517H46.8164L42.4703 37.9213L64.3984 43.4527V18.5614L42.4703 24.0928L48.1993 2.3623Z" fill="white" stroke="white"/>
</svg>
