<svg width="83" height="75" viewBox="0 0 83 75" fill="none" xmlns="http://www.w3.org/2000/svg">
<path fill-rule="evenodd" clip-rule="evenodd" d="M41.5014 74.3704C41.9746 74.3465 42.4204 74.1356 42.7394 73.782C44.2493 72.1082 45.2886 71.428 46.1798 71.0227C46.653 70.8074 47.1263 70.6504 47.7098 70.4673C47.7399 70.4579 47.7703 70.4484 47.801 70.4388C47.8336 70.4286 47.8665 70.4183 47.8997 70.4079L47.9005 70.4077C48.4275 70.2432 49.0413 70.0515 49.7102 69.79C58.9496 66.1782 64.1755 59.7021 67.0733 54.1657C68.5199 51.4018 69.3923 48.8632 69.9046 47.0091C70.0666 46.4228 70.193 45.9035 70.2904 45.4655C74.6183 45.2913 77.226 43.522 78.7056 41.4525C79.4929 40.3514 79.9045 39.2433 80.1208 38.416C80.2297 37.9998 80.2915 37.646 80.3265 37.3867C80.3441 37.2567 80.3551 37.1495 80.3619 37.069C80.3654 37.0287 80.3678 36.995 80.3694 36.9684L80.3705 36.9509L80.3714 36.9337L80.3721 36.9204L80.3723 36.9148L80.3724 36.9123C80.3725 36.9111 80.3725 36.9099 78.5851 36.836L80.3725 36.9099C80.3957 36.3486 80.154 35.809 79.7196 35.4528C79.2852 35.0965 78.7088 34.965 78.1629 35.0976C77.4919 35.2605 76.8729 35.3697 76.3042 35.437C78.7299 33.7708 80.2115 31.4731 81.0885 29.2834C81.8071 27.4891 82.128 25.7638 82.2718 24.498C82.3442 23.8614 82.3729 23.331 82.3833 22.953C82.3885 22.7638 82.3891 22.6121 82.3883 22.5035L82.3882 22.4847L82.388 22.4635C82.3877 22.4445 82.3875 22.4272 82.3872 22.4116C82.3869 22.3975 82.3867 22.3847 82.3864 22.3734L82.3858 22.3486L82.3853 22.3338L82.3849 22.3206L82.3847 22.3157L82.3847 22.3137C82.3846 22.3127 82.3846 22.3119 80.597 22.3804L82.3846 22.3119C82.3557 21.5586 81.8578 20.9042 81.1394 20.6756C80.4211 20.447 79.6365 20.6933 79.1776 21.2914C78.5452 22.1156 77.752 22.8164 76.8734 23.4099C77.5908 22.51 78.1972 21.5926 78.7039 20.6648C80.4711 17.4297 80.9678 14.179 80.8522 11.3136C80.7371 8.46124 80.0161 5.97954 79.3344 4.22233C78.992 3.33982 78.6551 2.62892 78.3999 2.13203C78.2722 1.88328 78.1644 1.68728 78.086 1.54929C78.0468 1.48027 78.0149 1.42568 77.9914 1.38618C77.9797 1.36642 77.9701 1.35043 77.9627 1.33829L77.9534 1.32296L77.9501 1.31747L77.9487 1.31528C77.9481 1.31433 77.9476 1.31345 76.4258 2.25389L77.9476 1.31345C77.5578 0.682699 76.8193 0.357771 76.0909 0.496541C75.3626 0.635312 74.7953 1.20902 74.6647 1.9389C73.6082 7.84562 70.145 12.9705 66.8289 16.684C65.1833 18.5268 63.6049 19.9875 62.4406 20.9851C61.8593 21.4833 61.3833 21.8641 61.0567 22.1175C60.8934 22.2442 60.7676 22.3389 60.6849 22.4004C60.6435 22.4312 60.6129 22.4536 60.5937 22.4675L60.5736 22.4821L60.5713 22.4838L60.5706 22.4843L60.5703 22.4845C60.1099 22.8134 59.8322 23.3408 59.8216 23.9066C59.7951 25.322 59.8634 26.9835 59.9341 28.7008L59.9341 28.702L59.9341 28.7024C59.9837 29.9071 60.0344 31.1396 60.0542 32.3336C60.1046 35.3675 59.9805 38.5321 59.2804 41.6632C57.9069 47.8063 54.2777 54.0314 44.7509 58.6804C44.5923 58.7578 44.446 58.8582 44.3167 58.9785L41.4111 61.6826L41.3208 61.5986V61.599L38.5055 58.9789C38.3763 58.8587 38.2299 58.7582 38.0713 58.6808C28.5445 54.0318 24.9153 47.8067 23.5418 41.6636C22.8417 38.5325 22.7176 35.3679 22.768 32.334C22.7879 31.1395 22.8386 29.9064 22.8881 28.7012C22.9588 26.9839 23.0271 25.3224 23.0006 23.907C22.99 23.3412 22.7123 22.8138 22.2519 22.4849L22.2516 22.4847L22.2509 22.4842L22.2486 22.4825L22.2285 22.4679C22.2094 22.454 22.1787 22.4316 22.1374 22.4008C22.0546 22.3394 21.9288 22.2446 21.7655 22.118C21.4389 21.8645 20.9629 21.4837 20.3816 20.9855C19.2173 19.9879 17.6389 18.5272 15.9933 16.6844C12.6772 12.9709 9.21398 7.84603 8.15747 1.93931C8.02692 1.20943 7.45965 0.635721 6.73128 0.49695C6.00291 0.35818 5.26443 0.683108 4.87464 1.31386L6.39647 2.2543C4.87464 1.31386 4.8741 1.31474 4.87351 1.31569L4.87216 1.31788L4.8688 1.32337L4.85947 1.33869C4.85211 1.35084 4.8425 1.36683 4.83077 1.38659C4.80732 1.42609 4.77541 1.48068 4.7362 1.5497C4.65781 1.68769 4.55006 1.88369 4.4223 2.13243C4.1671 2.62933 3.83025 3.34023 3.48786 4.22274C2.80609 5.97995 2.0851 8.46165 1.97002 11.314C1.85441 14.1794 2.35109 17.4301 4.11827 20.6652C4.62506 21.593 5.23141 22.5105 5.94879 23.4103C5.07024 22.8168 4.27698 22.116 3.64458 21.2918C3.1857 20.6937 2.40114 20.4475 1.68279 20.676C0.964444 20.9046 0.466473 21.559 0.437621 22.3123L2.22526 22.3808C0.437621 22.3123 0.437585 22.3132 0.437554 22.3141L0.437477 22.3161L0.437298 22.321L0.436869 22.3342L0.436439 22.349L0.435805 22.3738C0.435539 22.3851 0.435273 22.3979 0.435023 22.412C0.434642 22.4332 0.434297 22.4576 0.434041 22.4851L0.433882 22.5039C0.433074 22.6125 0.433724 22.7642 0.438935 22.9535C0.449347 23.3314 0.478035 23.8618 0.550381 24.4984C0.694239 25.7643 1.01508 27.4895 1.7337 29.2838C2.61069 31.4736 4.09232 33.7712 6.51802 35.4374C5.94936 35.3702 5.33035 35.261 4.65934 35.098C4.11344 34.9654 3.53697 35.0969 3.10261 35.4532C2.66825 35.8094 2.42647 36.349 2.44969 36.9103L4.23712 36.8364C2.44969 36.9103 2.44974 36.9115 2.44979 36.9127L2.4499 36.9152L2.45015 36.9208L2.45081 36.9341L2.45175 36.9513L2.45279 36.9688C2.45446 36.9954 2.45686 37.0291 2.46028 37.0694C2.46713 37.1499 2.47813 37.2571 2.4957 37.3871C2.53076 37.6464 2.59252 38.0002 2.70136 38.4164C2.91773 39.2437 3.3293 40.3518 4.11658 41.4529C5.59626 43.5224 8.20388 45.2917 12.5318 45.4659C12.6292 45.9039 12.7556 46.4232 12.9176 47.0095C13.4299 48.8636 14.3023 51.4023 15.7489 54.1661C18.6467 59.7026 23.8726 66.1786 33.112 69.7905C33.7809 70.0519 34.3947 70.2436 34.9217 70.4081C34.9866 70.4284 35.0502 70.4482 35.1125 70.4678C35.6959 70.6508 36.1692 70.8078 36.6424 71.0231C37.5336 71.4284 38.5729 72.1086 40.0828 73.7824C40.422 74.1584 40.9047 74.373 41.4111 74.373C41.4413 74.373 41.4714 74.3723 41.5014 74.3708V74.3704ZM41.3208 69.9431C40.1753 68.8898 39.1526 68.2341 38.1237 67.7662C37.4342 67.4526 36.7788 67.2407 36.1837 67.054L35.9891 66.9931L35.9887 66.9929C35.4542 66.8258 34.9601 66.6713 34.4146 66.4581C26.1744 63.2369 21.5257 57.4876 18.9189 52.5069C17.6132 50.0122 16.8257 47.7194 16.3663 46.0566C16.1369 45.2264 15.9902 44.557 15.902 44.1027C15.8579 43.8757 15.8284 43.7027 15.8105 43.5907C15.8015 43.5348 15.7955 43.494 15.792 43.4695L15.7898 43.4544L15.7885 43.445L14.0142 43.6736C15.7885 43.445 15.7884 43.4443 15.7883 43.4436L15.7882 43.4423C15.6681 42.5214 14.8632 41.8452 13.935 41.8864C9.73325 42.0725 7.89663 40.5881 7.02707 39.3719C6.95299 39.2683 6.88424 39.1642 6.82044 39.0604C8.68185 39.1992 10.1891 38.9887 11.3558 38.6557C12.2195 38.4092 12.8786 38.1008 13.3418 37.836C13.5731 37.7038 13.755 37.5828 13.8889 37.4864C13.9558 37.4381 14.0108 37.396 14.0539 37.3616C14.0755 37.3444 14.0941 37.3291 14.1098 37.316L14.1253 37.303L14.1312 37.2979L14.1403 37.2901L14.1444 37.2866L14.1464 37.2849C14.1473 37.284 14.1482 37.2832 12.9709 35.9363L14.1482 37.2832C14.6782 36.82 14.8872 36.0891 14.6824 35.4157C14.4775 34.7423 13.8969 34.2516 13.1987 34.1619C8.39083 33.5445 6.16279 30.7193 5.05514 27.9536C4.90417 27.5767 4.77471 27.2012 4.66374 26.8333C6.21211 27.7672 7.83182 28.4111 9.24157 28.8555C10.6191 29.2897 11.8631 29.554 12.7643 29.7104C13.2162 29.7888 13.5852 29.8406 13.8458 29.8733C13.9762 29.8896 14.0797 29.9012 14.1531 29.9089L14.1809 29.9117L14.2126 29.9149L14.2404 29.9176L14.2665 29.9201L14.275 29.9208L14.2781 29.9211L14.2793 29.9212C14.2793 29.9212 14.2804 29.9213 14.4342 28.139L14.2804 29.9213C15.117 29.9935 15.8912 29.4741 16.1417 28.6727C16.3922 27.8712 16.0516 27.0034 15.3228 26.5863C11.1247 24.1836 8.66161 21.5191 7.25825 18.95C5.85391 16.3791 5.4508 13.7937 5.54502 11.4582C5.59955 10.1068 5.82086 8.84286 6.11046 7.72584C7.90658 12.2942 10.7302 16.1623 13.3246 19.0675C15.0979 21.0534 16.7961 22.625 18.0536 23.7025C18.6052 24.1752 19.0738 24.5542 19.4288 24.8328C19.4233 25.9387 19.374 27.0969 19.3206 28.3515L19.3206 28.3519C19.2693 29.5573 19.2142 30.8518 19.1906 32.2746C19.1382 35.4292 19.261 38.915 20.0501 42.4443C21.6427 49.567 25.907 56.6487 36.2609 61.7776L40.1924 65.4364C40.5594 65.778 41.0341 65.937 41.5014 65.9135V65.9131C41.9086 65.8927 42.3101 65.7336 42.6299 65.436L46.5613 61.7772C56.9152 56.6483 61.1796 49.5666 62.7721 42.4439C63.5612 38.9146 63.684 35.4288 63.6316 32.2742C63.608 30.8514 63.5529 29.5569 63.5016 28.3515L63.5016 28.3511C63.4482 27.0965 63.3989 25.9382 63.3934 24.8324C63.7484 24.5538 64.217 24.1748 64.7687 23.7021C66.0262 22.6246 67.7243 21.053 69.4977 19.0671C72.092 16.1619 74.9156 12.2938 76.7118 7.72543C77.0014 8.84245 77.2227 10.1063 77.2772 11.4578C77.3714 13.7933 76.9683 16.3787 75.564 18.9496C74.1606 21.5187 71.6975 24.1832 67.4994 26.5859C66.7706 27.003 66.43 27.8708 66.6805 28.6723C66.931 29.4737 67.7052 29.9931 68.5418 29.9209L68.388 28.1386C68.5418 29.9209 68.5429 29.9208 68.5429 29.9208L68.5442 29.9207L68.5472 29.9204L68.5558 29.9197L68.5818 29.9172L68.6096 29.9145L68.6414 29.9113L68.6691 29.9085C68.7426 29.9008 68.8461 29.8892 68.9764 29.8729C69.237 29.8402 69.6061 29.7884 70.0579 29.71C70.9591 29.5536 72.2031 29.2892 73.5806 28.855C74.9904 28.4107 76.6101 27.7667 78.1585 26.8329C78.0475 27.2008 77.918 27.5762 77.7671 27.9532C76.6594 30.7188 74.4314 33.5441 69.6235 34.1615C68.9254 34.2512 68.3447 34.7419 68.1398 35.4153C67.935 36.0886 68.144 36.8196 68.674 37.2828L69.8513 35.9359C68.674 37.2828 68.6749 37.2836 68.6759 37.2845L68.6778 37.2862L68.6819 37.2897L68.691 37.2975L68.6969 37.3026L68.7124 37.3156C68.7281 37.3287 68.7467 37.344 68.7683 37.3612C68.8115 37.3956 68.8664 37.4377 68.9334 37.4859C69.0672 37.5824 69.2492 37.7034 69.4804 37.8356C69.9436 38.1004 70.6027 38.4088 71.4664 38.6553C72.6331 38.9883 74.1404 39.1988 76.0018 39.06C75.938 39.1638 75.8692 39.2679 75.7951 39.3715C74.9256 40.5877 73.089 42.0721 68.8872 41.8859C67.9591 41.8448 67.1541 42.521 67.0341 43.4419L67.0339 43.4432C67.0338 43.4438 67.0337 43.4446 68.808 43.6731L67.0337 43.4446L67.0303 43.469C67.0267 43.4936 67.0207 43.5343 67.0117 43.5903C66.9938 43.7023 66.9644 43.8752 66.9202 44.1023C66.832 44.5566 66.6853 45.226 66.456 46.0562C65.9965 47.719 65.2091 50.0118 63.9033 52.5065C61.2965 57.4871 56.6478 63.2365 48.4076 66.4577C47.8622 66.6709 47.368 66.8254 46.8335 66.9925L46.6386 67.0536C46.0435 67.2403 45.388 67.4522 44.6985 67.7658C43.6427 68.246 42.5933 68.9239 41.4111 70.0264C41.3957 70.012 41.3802 69.9977 41.3648 69.9834C41.3501 69.9698 41.3354 69.9562 41.3208 69.9427V69.9431Z" fill="white"/>
<path fill-rule="evenodd" clip-rule="evenodd" d="M41.5014 59.4177L44.2795 55.6773C52.7425 53.4056 56.0117 46.3239 57.2005 39.3284C58.0896 34.0963 57.8795 28.4363 57.7295 24.3976C57.6941 23.4422 57.662 22.5775 57.6486 21.8307C60.6352 19.9588 63.8086 17.7837 66.182 14.0877L67.2967 12.3518L65.4204 11.4941C62.8802 10.3328 60.7074 7.96781 59.1165 5.72423C58.3372 4.62523 57.7312 3.60365 57.3211 2.85854C57.1165 2.48689 56.9621 2.18643 56.8604 1.98252C56.8096 1.88062 56.7721 1.80303 56.7482 1.75293C56.7363 1.72788 56.7277 1.70973 56.7227 1.69886L56.7179 1.68854L56.7176 1.68807L56.7173 1.68735L56.2399 0.643803H41.3208V0.644212H26.5823L26.1049 1.68776L26.1046 1.68848L26.1044 1.68895L26.0996 1.69927C26.0945 1.71013 26.086 1.72829 26.074 1.75334C26.0501 1.80344 26.0126 1.88103 25.9618 1.98293C25.8601 2.18684 25.7057 2.4873 25.5011 2.85895C25.0911 3.60406 24.485 4.62564 23.7057 5.72464C22.1148 7.96822 19.9421 10.3332 17.4018 11.4945L15.5256 12.3522L16.6402 14.0881C19.0136 17.7841 22.187 19.9592 25.1736 21.8311C25.1603 22.5779 25.1282 23.4426 25.0927 24.398C24.9427 28.4367 24.7326 34.0967 25.6217 39.3288C26.8105 46.3243 30.0798 53.406 38.5427 55.6777L41.4111 59.5398L41.5014 59.4181V59.4177ZM41.3208 53.4174L40.6422 52.5037L40.0022 52.3551C33.1303 50.7598 30.2673 45.3098 29.1491 38.7294C28.3281 33.8981 28.5128 28.93 28.661 24.944C28.7184 23.4001 28.7703 22.0035 28.7562 20.8192L28.7445 19.8378L27.9105 19.3204C25.1993 17.6385 22.7434 16.0714 20.7784 13.6978C23.2697 12.0601 25.2402 9.74623 26.6243 7.79423C27.4992 6.56045 28.1762 5.41889 28.6357 4.58407C28.7061 4.4562 28.7715 4.3353 28.8318 4.22212H41.5014V4.22171H53.9904C54.0508 4.33489 54.1162 4.45579 54.1865 4.58366C54.646 5.41848 55.323 6.56004 56.1979 7.79382C57.5821 9.74582 59.5525 12.0597 62.0438 13.6973C60.0788 16.071 57.6229 17.638 54.9117 19.32L54.0777 19.8374L54.066 20.8188C54.0519 22.003 54.1038 23.3997 54.1612 24.9436C54.3094 28.9296 54.4941 33.8977 53.6731 38.729C52.5549 45.3094 49.692 50.7594 42.82 52.3547L42.18 52.5032L41.4111 53.5386L41.3208 53.4169V53.4174Z" fill="white"/>
<path d="M23.6066 8.11948L28.1158 2.4834H54.417L64.5619 13.5676L55.9199 20.8945V36.4876L53.2898 46.6325L48.4052 51.705L41.0783 55.6502L33.7514 51.705L28.1158 44.3781L26.8003 33.2938V20.8945L20.2249 15.0705L18.9102 12.2525L23.6066 8.11948Z" fill="white" stroke="white"/>
</svg>
